<svg xmlns="http://www.w3.org/2000/svg" width="638pt" height="638pt" viewBox="0 0 638 638.74863">
    <path d="M319.117 170.625c-82.148 0-148.746 66.598-148.746 148.746 0 82.149 66.598 148.746 148.746 148.746 82.149 0 148.746-66.597 148.746-148.746-.086-82.113-66.633-148.66-148.746-148.746zm0 276.242c-70.414 0-127.5-57.082-127.5-127.496 0-70.418 57.086-127.5 127.5-127.5s127.496 57.086 127.496 127.5c-.074 70.379-57.117 127.418-127.496 127.496zm0 0"/>
    <path d="M584.734 450.797V187.93c50.723-29.168 68.192-93.93 39.02-144.645a105.852 105.852 0 0 0-44.926-42.18C573.57-1.496 567.195.652 564.59 5.91a10.626 10.626 0 0 0-1.106 4.703v89.719l-31.87 15.934-31.88-15.934V10.613C499.73 4.746 494.97-.004 489.102 0a10.618 10.618 0 0 0-4.707 1.105 105.415 105.415 0 0 0-58.438 86.813 250.485 250.485 0 0 0-43.094-15.36V11.255c0-5.867-4.761-10.625-10.629-10.625H265.992c-5.867 0-10.629 4.758-10.629 10.625v61.293a251.647 251.647 0 0 0-65.754 27.156l-43.285-43.266c-4.148-4.148-10.87-4.148-15.023 0l-75.117 75.118c-4.149 4.152-4.149 10.875 0 15.023l43.265 43.285a251.647 251.647 0 0 0-27.156 65.754H11c-5.871 0-10.625 4.762-10.625 10.63v106.25c0 5.866 4.754 10.62 10.625 10.62h61.293a251.673 251.673 0 0 0 27.156 65.758L56.184 492.16c-4.149 4.149-4.149 10.875 0 15.024L131.3 582.3c4.152 4.144 10.875 4.144 15.023 0l43.285-43.266a251.514 251.514 0 0 0 65.754 27.156v61.293c0 5.868 4.758 10.63 10.63 10.63h106.25c5.866 0 10.62-4.762 10.62-10.63V566.18a249.97 249.97 0 0 0 43.075-15.364 105.415 105.415 0 0 0 58.437 86.817c5.25 2.613 11.629.48 14.25-4.774.73-1.472 1.11-3.09 1.11-4.734V538.43l31.878-15.934 31.875 15.934v89.695c.004 5.867 4.766 10.617 10.633 10.613a10.68 10.68 0 0 0 4.707-1.101c52.465-25.918 73.988-89.45 48.074-141.918a105.93 105.93 0 0 0-42.168-44.922zm-28.922-11.754a106.18 106.18 0 0 0-10.625-1.856 73.59 73.59 0 0 0-2.656-.308 104.149 104.149 0 0 0-10.918-.637c-1.648 0-3.297 0-4.562.117-4.227.184-8.442.63-12.614 1.336-1.34.215-2.632.532-3.953.797-2.898.586-5.757 1.262-8.586 2.125-.71.215-1.453.309-2.125.531V197.633c.704.222 1.43.316 2.125.52 2.829.827 5.68 1.507 8.504 2.124 1.309.262 2.582.57 3.891.786a98.194 98.194 0 0 0 12.379 1.328c1.644.129 3.289.136 4.933.136h.684a98.293 98.293 0 0 0 23.371-2.726c.469-.117.926-.27 1.395-.387 2.125-.55 4.324-1.062 6.449-1.75v243.484c-2.317-.73-4.664-1.347-7.024-1.918zM478.488 29.887v76.988a10.612 10.612 0 0 0 5.871 9.508l42.5 21.254a10.801 10.801 0 0 0 9.48 0l42.5-21.254a10.625 10.625 0 0 0 5.895-9.508V29.887c36.649 29.332 42.582 82.824 13.25 119.476a84.974 84.974 0 0 1-66.37 31.883c-1.137 0-2.235 0-3.731-.09a83.195 83.195 0 0 1-34.063-8.8 85.352 85.352 0 0 1-46.847-68.465 70.285 70.285 0 0 1-.36-7.637 84.383 84.383 0 0 1 31.875-66.367zM369.953 547.418a10.616 10.616 0 0 0-8.336 10.367v59.074h-85v-59.074a10.626 10.626 0 0 0-8.351-10.367 231.129 231.129 0 0 1-74.563-30.809 10.63 10.63 0 0 0-13.207 1.45l-41.68 41.707-60.093-60.098 41.71-41.68a10.632 10.632 0 0 0 1.458-13.207 230.987 230.987 0 0 1-30.817-74.562 10.618 10.618 0 0 0-10.379-8.352H21.621v-84.996h59.074a10.624 10.624 0 0 0 10.371-8.351 231.035 231.035 0 0 1 30.813-74.567 10.62 10.62 0 0 0-1.457-13.207l-41.7-41.684 60.094-60.09 41.68 41.716a10.63 10.63 0 0 0 13.207 1.453 230.94 230.94 0 0 1 74.567-30.809 10.629 10.629 0 0 0 8.347-10.383V21.875h85v59.074c0 4.989 3.469 9.301 8.336 10.371a228.986 228.986 0 0 1 56.57 20.508c.22 1.496.633 2.942.922 4.43.332 1.71.649 3.41 1.063 5.097.637 2.618 1.422 5.165 2.265 7.704.489 1.511.938 3.043 1.497 4.539 1.062 2.824 2.34 5.578 3.644 8.308.524 1.063.957 2.242 1.531 3.324a105.103 105.103 0 0 0 6.5 10.88c.47.702 1.063 1.331 1.532 2.007 1.964 2.746 4.015 5.442 6.246 7.992 1.062 1.2 2.187 2.282 3.285 3.434 1.828 1.918 3.676 3.824 5.64 5.61 1.32 1.179 2.7 2.257 4.067 3.386 1.937 1.582 3.906 3.121 5.953 4.57 1.484 1.063 3.02 2.016 4.559 2.98 1.062.704 2.125 1.505 3.261 2.126V450.5c-1.16.66-2.199 1.477-3.328 2.125-1.476.938-2.937 1.871-4.367 2.867-2.125 1.512-4.25 3.113-6.215 4.77-1.297 1.062-2.601 2.125-3.844 3.187-2.03 1.828-3.921 3.774-5.804 5.75-1.063 1.063-2.125 2.125-3.188 3.336-2.125 2.402-4.004 4.942-5.87 7.512-.63.86-1.352 1.66-1.946 2.539-2.328 3.437-4.457 7-6.375 10.68-.754 1.441-1.348 2.96-2.04 4.437-1.062 2.34-2.199 4.676-3.124 7.11-.684 1.765-1.2 3.57-1.774 5.378-.722 2.25-1.437 4.5-2.008 6.805-.468 1.852-.808 3.734-1.171 5.61-.266 1.43-.672 2.808-.88 4.253a228.968 228.968 0 0 1-56.6 20.559zm214.781 61.43v-76.98c0-4.024-2.265-7.696-5.851-9.505l-42.5-21.246a10.623 10.623 0 0 0-9.48 0l-42.5 21.246a10.629 10.629 0 0 0-5.915 9.504v76.98a84.398 84.398 0 0 1-31.875-66.359c-.015-2.62.11-5.242.383-7.847a82.37 82.37 0 0 1 1.703-10.778 85.382 85.382 0 0 1 45.203-57.52 83.525 83.525 0 0 1 34.371-8.777c.907-.062 1.797-.07 2.692-.07a84.973 84.973 0 0 1 29.293 4.98 82.633 82.633 0 0 1 9.101 3.887c42.059 20.86 59.243 71.856 38.387 113.914a84.936 84.936 0 0 1-23.012 28.57zm0 0"/>
    <path d="M319.117 223.746c-52.812 0-95.625 42.813-95.625 95.625 0 52.809 42.813 95.617 95.625 95.617 52.813 0 95.625-42.808 95.625-95.617-.058-52.789-42.84-95.566-95.625-95.625zm0 169.996c-41.078 0-74.375-33.3-74.375-74.37 0-41.079 33.297-74.376 74.375-74.376s74.371 33.297 74.371 74.375c-.054 41.05-33.32 74.317-74.37 74.371zm0 0"/>
</svg>
