<svg xmlns="http://www.w3.org/2000/svg" width="852" height="852" viewBox="-149 0 639 639.9978">
    <path d="M341.559 457.27a11.05 11.05 0 0 0-.45-2.223 9.725 9.725 0 0 0-.949-1.766 9.655 9.655 0 0 0-1.133-1.687 10.311 10.311 0 0 0-1.714-1.418c-.352-.332-.727-.64-1.122-.918l-139.164-74.219c18.657-14.11 22.348-40.676 8.239-59.332a42.364 42.364 0 0 0-23.43-15.527v-55.805c26.797-4.586 47.793-25.578 52.375-52.375h32.957c5.887 0 10.664-4.773 10.664-10.668V74.668c0-5.895-4.777-10.668-10.664-10.668h-32V0h-21.336v64H128.5V0h-21.332v64h-32c-5.89 0-10.664 4.773-10.664 10.668v106.664c0 5.895 4.773 10.668 10.664 10.668h32.957c4.586 26.805 25.578 47.793 52.375 52.375v64.96c0 5.888 4.777 10.665 10.668 10.665 11.781 0 21.332 9.55 21.332 21.332 0 11.781-9.55 21.332-21.332 21.332-11.781 0-21.332-9.55-21.332-21.332 0-5.89-4.777-10.664-10.672-10.664-5.887 0-10.664 4.773-10.664 10.664a42.454 42.454 0 0 0 16.813 33.707L6.144 449.258a9.773 9.773 0 0 0-1.125.918c-.614.414-1.192.887-1.715 1.418a10.75 10.75 0 0 0-1.14 1.687 7.43 7.43 0 0 0-1.388 3.989c-.129.457-.215.925-.277 1.394v170.668c0 5.89 4.773 10.664 10.668 10.664h320c5.89 0 10.668-4.773 10.668-10.664V458.664a9.897 9.897 0 0 0-.277-1.394zM85.836 85.332h170.668v85.332H85.836zM129.859 192h82.621c-5.886 22.813-29.16 36.535-51.976 30.645A42.646 42.646 0 0 1 129.859 192zM288.5 447.996H53.84l117.328-62.578zm32.004 170.668H21.836V469.328h298.668zm0 0"/>
    <path d="M53.832 597.332H288.5c5.895 0 10.668-4.777 10.668-10.668v-85.332c0-5.89-4.773-10.668-10.668-10.668-5.887 0-10.668 4.777-10.668 10.668V576h-224c-5.887 0-10.664 4.773-10.664 10.668 0 5.887 4.777 10.664 10.664 10.664zm0 0"/>
</svg>
