<svg xmlns="http://www.w3.org/2000/svg" width="852" height="852" viewBox="0 -83 639.99919 639">
    <path d="M152.152 336.203c-23.18 0-41.96 18.79-41.96 41.961 0 23.176 18.78 41.965 41.96 41.965 23.176 0 41.965-18.79 41.965-41.965 0-23.172-18.789-41.96-41.965-41.96zm0 62.945c-11.586 0-20.98-9.394-20.98-20.984 0-11.586 9.394-20.98 20.98-20.98s20.98 9.394 20.98 20.98c0 11.59-9.394 20.984-20.98 20.984zm0 0"/>
    <path d="M635.77 100.164c-8.676-15.066-27.918-20.234-42.977-11.559a.117.117 0 0 0-.031.016l-90.864 52.453c-5.015 2.899-6.734 9.313-3.836 14.332l4.731 8.196-14.938 8.62V157.86c0-5.793-4.695-10.488-10.492-10.488h-20.98V73.934c0-5.793-4.7-10.489-10.496-10.489H288.53V10.992C288.531 5.195 283.832.5 278.043.5H68.227a10.49 10.49 0 0 0-10.493 10.492v136.38H30.98l-11.367-19.716c-2.867-5.039-9.273-6.797-14.304-3.933-5.04 2.867-6.797 9.265-3.938 14.304.024.04.05.086.07.125L96.18 302.305c-41.993 30.918-50.97 90.02-20.059 132.011 30.914 41.993 90.02 50.973 132.012 20.059 35.566-26.184 48.234-73.527 30.48-113.973l87.43-50.484L432.379 467.48a10.497 10.497 0 0 0 9.004 5.106h35.98c5.797 0 10.492-4.7 10.492-10.496V196.445l25.407-14.687 5.761 9.988c2.895 5.02 9.313 6.738 14.332 3.84l90.88-52.41c15.062-8.684 20.234-27.926 11.554-42.985-.004-.007-.008-.02-.02-.027zM435.398 84.426v62.945H288.531V84.426zM78.715 21.48h188.832v125.891H78.715zm73.437 430.122c-40.554 0-73.437-32.88-73.437-73.438 0-40.555 32.875-73.43 73.437-73.43 40.559 0 73.434 32.875 73.434 73.43-.043 40.54-32.895 73.39-73.434 73.438zm0-167.852a93.702 93.702 0 0 0-37.84 7.969L43.047 168.352h423.828v15.976l-238.824 137.91a94.26 94.26 0 0 0-75.899-38.488zm314.723 167.852h-19.547l-103.09-172.176 122.637-70.863zM613.746 124.98l-81.77 47.207-10.488-18.167 81.762-47.208c5.04-2.867 11.441-1.101 14.309 3.938 2.836 4.988 1.136 11.332-3.813 14.23zm0 0"/>
</svg>
